<svg width="47" height="24" viewBox="0 0 47 24" fill="none" xmlns="http://www.w3.org/2000/svg">
<path d="M30.6118 8.07162C30.3011 8.27872 29.8356 8.43362 29.2665 8.43362C28.3868 8.43362 27.5592 8.33007 26.7317 8.07162C26.5246 8.02027 26.3697 7.96808 26.2662 7.96808C26.1113 7.96808 26.0591 8.07163 26.0591 8.27872V8.79646C26.0591 8.95136 26.1104 9.0549 26.1626 9.15845C26.214 9.2098 26.3175 9.31335 26.4733 9.36554C27.3008 9.72754 28.2327 9.88328 29.2674 9.88328C30.3542 9.88328 31.1817 9.62483 31.8544 9.1071C32.527 8.58936 32.8376 7.91672 32.8376 7.03784C32.8376 6.41655 32.6827 5.95101 32.3721 5.53767C32.0614 5.17567 31.5446 4.81368 30.8197 4.55439L29.3709 3.9853C28.8018 3.77821 28.3876 3.57111 28.2327 3.36402C28.0256 3.15693 27.9221 2.94983 27.9221 2.58784C27.9221 1.81166 28.4912 1.39747 29.6815 1.39747C30.3542 1.39747 31.0268 1.50101 31.6473 1.70811C31.8544 1.75946 32.0093 1.81166 32.0614 1.81166C32.2163 1.81166 32.3199 1.70811 32.3199 1.50101V0.983279C32.3199 0.828379 32.2685 0.72483 32.2163 0.621283C32.165 0.517736 32.0614 0.466384 31.9057 0.41419C31.1295 0.155743 30.3533 0 29.5771 0C28.5939 0 27.7664 0.258447 27.1451 0.723988C26.5238 1.18953 26.214 1.86217 26.214 2.63835C26.214 3.82872 26.8866 4.70761 28.2319 5.22534L29.7842 5.79443C30.302 6.00152 30.6118 6.15643 30.8189 6.36352C31.026 6.57061 31.0773 6.77771 31.0773 7.08751C31.0773 7.50169 30.9224 7.86369 30.6118 8.07078V8.07162Z" fill="white"/>
<path d="M22.4888 0.621381V7.50264C21.609 8.07172 20.7293 8.38236 19.8504 8.38236C19.2813 8.38236 18.8671 8.22746 18.6087 7.91682C18.3502 7.60618 18.2467 7.14064 18.2467 6.46801V0.621381C18.2467 0.362934 18.1431 0.259388 17.8847 0.259388H16.7979C16.5394 0.259388 16.4359 0.362934 16.4359 0.621381V7.03709C16.4359 7.91682 16.643 8.64081 17.1085 9.10635C17.574 9.57189 18.2467 9.83034 19.1264 9.83034C20.3168 9.83034 21.5063 9.41615 22.6445 8.58862L22.748 9.2099C22.748 9.3648 22.7994 9.41699 22.9029 9.46834C22.9543 9.5197 23.0578 9.5197 23.2136 9.5197H23.9898C24.2482 9.5197 24.3517 9.41615 24.3517 9.1577V0.62054C24.3517 0.362094 24.2482 0.258545 23.9898 0.258545H22.9029C22.5923 0.258545 22.4888 0.413446 22.4888 0.62054V0.621381Z" fill="white"/>
<path d="M12.6585 9.57279H13.7454C14.0038 9.57279 14.1074 9.46924 14.1074 9.21079V2.74373C14.1074 1.864 13.9002 1.19136 13.4347 0.72582C12.9692 0.260278 12.3479 0.00183105 11.469 0.00183105C10.2787 0.00183105 9.03693 0.416018 7.8474 1.29491C7.43322 0.415177 6.65702 0.00183105 5.51884 0.00183105C4.38067 0.00183105 3.24249 0.416018 2.10431 1.1922L2.00076 0.623114C2.00076 0.468214 1.94942 0.416019 1.84588 0.364667C1.79452 0.313314 1.69095 0.313313 1.5874 0.313313H0.759903C0.501456 0.313313 0.397884 0.416861 0.397884 0.675308V9.26383C0.397884 9.52227 0.501456 9.62582 0.759903 9.62582H1.8467C2.10515 9.62582 2.20872 9.52227 2.20872 9.26383V2.27903C3.08845 1.76129 3.96817 1.45149 4.89926 1.45149C5.41699 1.45149 5.77896 1.60639 5.98605 1.91703C6.19315 2.22767 6.34807 2.64102 6.34807 3.2623V9.21248C6.34807 9.47092 6.4516 9.57447 6.71005 9.57447H7.79689C8.05533 9.57447 8.15886 9.47092 8.15886 9.21248V2.27987C9.08995 1.71078 9.96967 1.45233 10.8494 1.45233C11.3671 1.45233 11.7291 1.60723 11.9362 1.91787C12.1433 2.22851 12.2982 2.64186 12.2982 3.26314V9.21332C12.2982 9.47176 12.4018 9.57531 12.6602 9.57531L12.6585 9.57279Z" fill="white"/>
<path d="M40.8562 16.4539C35.2166 18.8338 29.0594 20.0242 23.472 20.0242C15.1941 20.0242 7.17388 17.7479 0.706815 13.9705C0.603268 13.9191 0.499726 13.8669 0.396179 13.8669C0.0341849 13.8669 -0.172906 14.2811 0.189088 14.6431C6.19061 20.0756 14.1587 23.3352 22.9543 23.3352C29.2665 23.3352 36.5619 21.3695 41.5802 17.6443C42.4599 17.023 41.735 16.0919 40.8562 16.4539Z" fill="white"/>
<path d="M40.7013 2.32871C41.1668 1.81097 41.8917 1.55252 42.9263 1.55252C43.444 1.55252 43.9609 1.60388 44.4265 1.75962C44.5814 1.81097 44.6335 1.81097 44.7371 1.81097C44.892 1.81097 44.9956 1.70743 44.9956 1.44898V0.931242C44.9956 0.776342 44.9442 0.620601 44.892 0.569249C44.8398 0.517896 44.7371 0.41435 44.6335 0.362155C43.9609 0.207255 43.2883 0.0515137 42.6678 0.0515137C41.219 0.0515137 40.133 0.465701 39.3047 1.34459C38.5285 2.17212 38.1143 3.41385 38.1143 4.96621C38.1143 6.51858 38.4763 7.70811 39.2525 8.53648C40.0286 9.36402 41.1155 9.77821 42.5635 9.77821C43.3396 9.77821 44.0636 9.67466 44.6327 9.41621C44.7876 9.36486 44.8912 9.31267 44.9434 9.20912C44.9947 9.15777 44.9947 9.00203 44.9947 8.84713V8.32939C44.9947 8.07094 44.8912 7.9674 44.7363 7.9674C44.6849 7.9674 44.5813 7.96739 44.4778 8.01875C43.9087 8.17365 43.3396 8.27719 42.8219 8.27719C41.8386 8.27719 41.1146 8.01875 40.6491 7.50101C40.1835 6.98328 39.9765 6.15574 39.9765 5.06892V4.81047C40.0278 3.6723 40.2349 2.84476 40.7005 2.32702L40.7013 2.32871Z" fill="white"/>
<path d="M43.0289 21.3174C45.7195 19.041 46.4435 14.3326 45.8744 13.6086C45.6159 13.2979 44.3742 12.9873 42.8218 12.9873C41.1659 12.9873 39.2002 13.3493 37.7 14.3839C37.2345 14.6946 37.338 15.1079 37.8036 15.0566C39.4073 14.8495 43.0289 14.4353 43.7016 15.2637C44.3228 16.0912 42.9776 19.5066 42.3563 21.0067C42.2014 21.4723 42.5634 21.628 43.0289 21.3174Z" fill="white"/>
<path d="M35.8379 0.259399H34.7511C34.4926 0.259399 34.3891 0.362946 34.3891 0.621392V9.20991C34.3891 9.46836 34.4926 9.57191 34.7511 9.57191H35.8379C36.0964 9.57191 36.1999 9.46836 36.1999 9.20991V0.621392C36.1999 0.414298 36.0964 0.259399 35.8379 0.259399Z" fill="white"/>
</svg>
