<svg width="50" height="12" viewBox="0 0 50 12" fill="none" xmlns="http://www.w3.org/2000/svg">
<path d="M8.2866 11.3228C7.6468 11.9441 6.94049 11.8473 6.26786 11.5543C5.55229 11.2555 4.89817 11.237 4.14219 11.5543C3.20101 11.9601 2.70181 11.8423 2.13525 11.3228C-1.06461 8.02869 -0.592334 3.01045 3.04444 2.82187C3.9267 2.86901 4.54377 3.3093 5.06319 3.34634C5.83516 3.18891 6.57431 2.73937 7.401 2.7983C8.39438 2.87827 9.13687 3.27057 9.63272 3.9752C7.5904 5.20345 8.07446 7.89484 9.95009 8.65082C9.57463 9.63662 9.09311 10.6106 8.28494 11.3313V11.3228H8.2866ZM4.99247 2.78651C4.8965 1.32254 6.08349 0.117859 7.44813 0C7.63586 1.68874 5.91345 2.95151 4.99247 2.78651Z" fill="white"/>
<path d="M11.5554 11.6276H13.0884V3.62248H13.1406L16.4103 11.6276H17.658L20.9277 3.62248H20.9799V11.6276H22.5129V0.78125H20.5733L17.0552 9.44048H17.0097L13.4992 0.78125H11.5529V11.6276H11.5554Z" fill="white"/>
<path d="M26.7567 11.7984C27.9596 11.7984 28.7636 11.2495 29.177 10.4531H29.2148V11.641H30.8463V3.73352H29.2148V8.34852C29.2148 9.58099 28.4782 10.4009 27.3358 10.4009C26.1934 10.4009 25.6521 9.73925 25.6521 8.54467V3.73436H24.0282V8.86037C24.0282 10.6796 25.0208 11.7993 26.7567 11.7993V11.7984Z" fill="white"/>
<path d="M35.0969 11.7986C36.9574 11.7986 38.3077 10.8085 38.3077 9.36815V9.36057C38.3077 8.22745 37.6923 7.59017 36.0793 7.2147L34.7963 6.92174C33.9486 6.71886 33.6261 6.38885 33.6261 5.90142V5.89385C33.6261 5.2633 34.1742 4.8508 35.0438 4.8508C35.9589 4.8508 36.4994 5.33065 36.597 6.02097L36.6046 6.07316H38.1275L38.1199 5.98308C38.0374 4.64034 36.9119 3.59729 35.0438 3.59729C33.1758 3.59729 31.998 4.56541 31.998 5.97551V5.98308C31.998 7.13136 32.7405 7.85114 34.2415 8.1963L35.5321 8.48926C36.3798 8.69214 36.6652 8.98427 36.6652 9.49442V9.502C36.6652 10.1401 36.0801 10.545 35.1044 10.545C34.1287 10.545 33.5664 10.1174 33.4165 9.39004L33.4014 9.31511H31.796L31.8036 9.38246C31.9686 10.8229 33.1236 11.7986 35.0969 11.7986Z" fill="white"/>
<path d="M40.1799 2.46486C40.7153 2.46486 41.1295 2.04309 41.1295 1.53041C41.1295 1.01772 40.7145 0.588379 40.1799 0.588379C39.6453 0.588379 39.2303 1.01014 39.2303 1.53041C39.2303 2.05067 39.6521 2.46486 40.1799 2.46486ZM39.3658 11.6166H40.994V3.68638H39.3658V11.6166Z" fill="white"/>
<path d="M45.726 11.7985C47.6244 11.7985 48.9452 10.5829 49.1178 8.99941L49.1254 8.94721H47.5646L47.557 9.00698C47.3617 9.8623 46.7244 10.4407 45.726 10.4407C44.4725 10.4407 43.6399 9.42791 43.6399 7.70128V7.6937C43.6399 6.00496 44.4582 4.95433 45.7184 4.95433C46.7766 4.95433 47.3769 5.60761 47.5494 6.38042L47.5646 6.44019H49.1102L49.1026 6.388C48.9679 4.90214 47.7372 3.59644 45.7033 3.59644C43.4522 3.59644 41.9814 5.17995 41.9814 7.67855V7.68613C41.9814 10.215 43.4227 11.7985 45.726 11.7985Z" fill="white"/>
</svg>
