<svg width="51" height="60" viewBox="0 0 51 60" fill="none" xmlns="http://www.w3.org/2000/svg">
<path d="M0 0H17.3586V59.128H0V0ZM8.67931 47.237H24.7693C27.4447 47.237 29.5172 46.684 30.9742 45.5778C32.4312 44.4717 33.1597 42.8753 33.1597 40.8013V40.7259C33.1597 39.3935 32.8206 38.2371 32.1548 37.2818C31.4891 36.3265 30.5094 35.5975 29.2031 35.1072C27.9094 34.617 26.3017 34.3656 24.3925 34.3656H8.66673V23.9202H23.5635C26.1509 23.9202 28.1229 23.3671 29.4544 22.261C30.7858 21.1548 31.464 19.6465 31.464 17.7359V17.6605C31.464 15.8881 30.8234 14.4803 29.5423 13.437C28.2611 12.3937 26.5152 11.8784 24.3045 11.8784H8.66673V0H29.0147C33.0843 0 36.551 0.590777 39.4399 1.7849C42.3163 2.97902 44.527 4.67594 46.0468 6.90078C47.5792 9.12562 48.3453 11.803 48.3453 14.9077V14.9957C48.3453 17.2959 47.8178 19.3574 46.7502 21.18C45.6825 23.0152 44.2381 24.511 42.3917 25.6674C40.5453 26.8238 38.4853 27.5654 36.1868 27.8545V28.1813C38.837 28.2316 41.2738 28.8727 43.497 30.1045C45.7202 31.3363 47.5038 32.983 48.8352 35.0444C50.1666 37.1058 50.8449 39.4187 50.8449 41.9829V42.0709C50.8449 45.4898 49.9908 48.4689 48.27 51.0205C46.5492 53.5722 44.1376 55.5582 41.0226 56.9786C37.9076 58.3989 34.2399 59.1028 30.007 59.1028H8.67931V47.2244V47.237Z" fill="white"/>
</svg>
