<svg width="36" height="45" viewBox="0 0 36 45" fill="none" xmlns="http://www.w3.org/2000/svg">
<path d="M9.08271 42.0666C6.29428 40.2817 4.14643 37.7426 2.63917 34.4493C1.11935 31.1561 0.365723 27.272 0.365723 22.7972V22.7595C0.365723 18.2847 1.13193 14.4006 2.66431 11.1199C4.19669 7.83923 6.34453 5.31272 9.13296 3.51525C11.9214 1.73035 15.1871 0.837891 18.9553 0.837891C21.8191 0.837891 24.4316 1.36582 26.7804 2.43425C29.1292 3.50268 31.0761 4.9859 32.6336 6.88392C34.1911 8.78195 35.196 10.9691 35.6607 13.4579L35.7486 13.8727H33.6636L33.5757 13.5082C32.8597 10.2903 31.1766 7.68839 28.5138 5.70238C25.851 3.71636 22.6606 2.73592 18.9553 2.73592C15.6016 2.73592 12.675 3.55296 10.188 5.17445C7.70106 6.79595 5.79188 9.10877 4.43535 12.1129C3.07881 15.1171 2.41309 18.6743 2.41309 22.7721V22.8098C2.41309 26.9326 3.09138 30.5024 4.43535 33.5066C5.79188 36.5108 7.71364 38.8236 10.2132 40.4451C12.7127 42.0666 15.6267 42.8836 18.9553 42.8836C22.6732 42.8836 25.8384 41.8906 28.4761 39.9172C31.1138 37.9311 32.7969 35.3292 33.538 32.1114L33.6133 31.7468H35.6607L35.5728 32.1616C35.108 34.6756 34.1032 36.8753 32.5583 38.7733C31.0133 40.6713 29.079 42.142 26.7679 43.1979C24.4568 44.2537 21.8442 44.7691 18.9427 44.7691C15.1494 44.7691 11.8586 43.8766 9.07017 42.0917L9.08271 42.0666Z" fill="#F2D649"/>
</svg>
