<svg width="37" height="60" viewBox="0 0 37 60" fill="none" xmlns="http://www.w3.org/2000/svg">
<path d="M8.73216 56.9911C6.04421 55.1434 3.94659 52.5666 2.42677 49.2482C0.906947 45.9298 0.15332 42.096 0.15332 37.7594V37.7217C0.15332 33.3726 0.919532 29.564 2.45191 26.2959C3.98429 23.0152 6.09443 20.4635 8.78237 18.6158C11.4703 16.768 14.5602 15.8504 18.052 15.8504C20.7525 15.8504 23.227 16.3909 25.4878 17.4719C27.7362 18.5529 29.6454 20.0738 31.2154 22.0347C32.7855 23.9956 33.8782 26.3084 34.5063 28.9606H34.6319V0H36.6793V59.128H34.6319V46.9982H34.4309C33.715 49.5373 32.5845 51.7747 31.0145 53.6979C29.4444 55.621 27.5603 57.1168 25.3497 58.1853C23.139 59.2537 20.6897 59.7816 18.0269 59.7816C14.5351 59.7816 11.4452 58.864 8.75727 57.0163L8.73216 56.9911ZM26.769 55.3068C29.2309 53.5973 31.1526 51.2342 32.5468 48.2175C33.9411 45.2007 34.6319 41.7315 34.6319 37.8349V37.7972C34.6319 33.8628 33.9285 30.3936 32.5217 27.3643C31.115 24.3476 29.1806 21.9844 26.7313 20.275C24.2695 18.5655 21.4685 17.7107 18.3032 17.7107C15.138 17.7107 12.337 18.5529 9.91285 20.2247C7.48867 21.909 5.59203 24.2344 4.24805 27.226C2.89152 30.2176 2.22579 33.712 2.22579 37.6966V37.7343C2.22579 41.7189 2.90408 45.2259 4.24805 48.2426C5.60459 51.2593 7.48867 53.6224 9.91285 55.3068C12.337 57.0037 15.1506 57.8459 18.3409 57.8459C21.5313 57.8459 24.3197 56.9911 26.769 55.2816V55.3068Z" fill="#F2D649"/>
</svg>
