<svg width="169" height="186" viewBox="0 0 169 186" fill="none" xmlns="http://www.w3.org/2000/svg">
<path d="M158.235 41.5954C151.197 28.1151 141.039 17.9217 127.773 11.0082C114.501 4.09463 98.5261 0.641479 79.8419 0.641479H0.871216V185.321H79.8419C98.5261 185.321 114.508 181.629 127.773 174.253C141.039 166.878 151.197 156.186 158.235 142.192C165.272 128.199 168.798 111.352 168.798 91.6375V91.3846C168.798 71.677 165.279 55.083 158.235 41.6027V41.5954ZM113.497 91.6375C113.497 102.987 111.936 112.393 108.822 119.855C105.708 127.325 101.077 132.909 94.9352 136.623C88.7938 140.336 81.193 142.192 72.1544 142.192H55.132V43.7772H72.1544C80.774 43.7772 88.1725 45.5904 94.3644 49.217C100.549 52.8435 105.289 58.1967 108.569 65.2764C111.856 72.3561 113.497 81.0613 113.497 91.3846V91.6375Z" fill="white"/>
</svg>
