<svg width="36" height="28" viewBox="0 0 36 28" fill="none" xmlns="http://www.w3.org/2000/svg">
<path d="M0.00173874 24.4398C0.00173874 26.3238 1.16265 27.4519 2.88675 27.4519C3.74712 27.4519 4.47025 27.212 4.87434 26.5823V27.4519H6.44859V18.4761H4.81288V22.2922C4.44163 21.6625 3.75552 21.3805 2.89515 21.3805C1.21315 21.3755 5.34058e-05 22.5271 5.34058e-05 24.4398H0.00173874ZM4.86593 24.4398C4.86593 25.5157 4.13267 26.1883 3.25378 26.1883C2.37489 26.1883 1.64165 25.5165 1.64165 24.4398C1.64165 23.3631 2.34627 22.6584 3.25378 22.6584C4.16129 22.6584 4.86593 23.3538 4.86593 24.4398Z" fill="white"/>
<path d="M11.5384 25.135C11.3507 25.8304 10.8759 26.1781 10.1283 26.1781C9.25867 26.1781 8.54478 25.6519 8.52542 24.7217H12.6471C12.6985 24.491 12.722 24.2469 12.722 23.9792C12.722 22.3107 11.5847 21.3712 9.90688 21.3712C8.11628 21.3712 6.88551 22.6449 6.88551 24.374C6.88551 26.301 8.2434 27.4569 10.1232 27.4569C11.5426 27.4569 12.5057 26.865 12.9291 25.6856L11.5384 25.1359V25.135ZM8.52626 23.6315C8.68116 22.9597 9.24015 22.5649 9.91278 22.5649C10.646 22.5649 11.1444 22.9597 11.1444 23.5802L11.1351 23.6315H8.52711H8.52626Z" fill="white"/>
<path d="M17.6056 25.135C17.4179 25.8304 16.9431 26.1781 16.1955 26.1781C15.3259 26.1781 14.612 25.6519 14.5926 24.7217H18.7143C18.7657 24.491 18.7892 24.2469 18.7892 23.9792C18.7892 22.3107 17.6519 21.3712 15.9741 21.3712C14.1835 21.3712 12.9527 22.6449 12.9527 24.374C12.9527 26.301 14.3106 27.4569 16.1905 27.4569C17.6098 27.4569 18.5729 26.865 18.9963 25.6856L17.6056 25.1359V25.135ZM14.5935 23.6315C14.7484 22.9597 15.3082 22.5649 15.98 22.5649C16.7133 22.5649 17.2116 22.9597 17.2116 23.5802L17.2024 23.6315H14.5943H14.5935Z" fill="white"/>
<path d="M24.5609 27.461V25.981H21.1253L24.4666 22.729V21.3753H19.1798V22.7854H22.4083L19.0762 26.0518V27.4619H24.56L24.5609 27.461Z" fill="white"/>
<path d="M29.3401 25.135C29.1523 25.8304 28.6775 26.1781 27.93 26.1781C27.0603 26.1781 26.3464 25.6519 26.3271 24.7217H30.4488C30.5001 24.491 30.5237 24.2469 30.5237 23.9792C30.5237 22.3107 29.3863 21.3712 27.7085 21.3712C25.9179 21.3712 24.6872 22.6449 24.6872 24.374C24.6872 26.301 26.0451 27.4569 27.9249 27.4569C29.3443 27.4569 30.3073 26.865 30.7308 25.6856L29.3401 25.1359V25.135ZM26.3279 23.6315C26.4828 22.9597 27.0427 22.5649 27.7144 22.5649C28.4477 22.5649 28.9461 22.9597 28.9461 23.5802L28.9368 23.6315H26.3288H26.3279Z" fill="white"/>
<path d="M35.9941 0H28.2112V4.55355H35.9941V0Z" fill="white"/>
<path d="M35.9941 6.31311H28.2112V10.8667H35.9941V6.31311Z" fill="white"/>
<path d="M7.78462 12.626H0.00175476V17.1795H7.78462V12.626Z" fill="white"/>
<path d="M17.1821 12.626H9.3992V17.1795H17.1821V12.626Z" fill="white"/>
<path d="M26.5974 12.626H18.8145V17.1795H26.5974V12.626Z" fill="white"/>
<path d="M35.9941 12.626H28.2112V17.1795H35.9941V12.626Z" fill="white"/>
<path d="M26.5974 6.31311H18.8145V10.8667H26.5974V6.31311Z" fill="white"/>
<path d="M17.1821 6.31311H9.3992V10.8667H17.1821V6.31311Z" fill="white"/>
<path d="M17.1821 0H9.3992V4.55355H17.1821V0Z" fill="white"/>
<path d="M34.4013 23.4757V23.65H35.9941V23.1845C35.9941 22.1414 35.3408 21.3846 34.2456 21.3846C33.5409 21.3846 33.0425 21.7281 32.7841 22.2963V21.3846H31.1391V27.461H32.7841V23.5464C32.7841 22.926 33.1175 22.5834 33.6302 22.5834C34.0999 22.5884 34.4004 23.0296 34.4004 23.4766L34.4013 23.4757Z" fill="white"/>
</svg>
