<svg width="38" height="45" viewBox="0 0 38 45" fill="none" xmlns="http://www.w3.org/2000/svg">
<path d="M9.50756 42.1294C6.68145 40.3822 4.48336 37.8557 2.9133 34.575C1.34324 31.2818 0.564453 27.36 0.564453 22.7972V22.7595C0.564453 18.1967 1.33064 14.2749 2.87558 11.0068C4.42052 7.7261 6.5684 5.21216 9.34426 3.46497C12.1201 1.71778 15.2979 0.837891 18.9028 0.837891C22.5076 0.837891 25.7231 1.69263 28.4864 3.40212C31.2498 5.1116 33.385 7.53755 34.9174 10.68C36.4498 13.8224 37.216 17.5179 37.216 21.7791V22.9732H1.59442V21.0877H36.3493L35.244 22.483V21.8293C35.244 17.983 34.5532 14.6143 33.1589 11.7484C31.7647 8.88251 29.8556 6.65768 27.4063 5.08646C24.957 3.51525 22.1308 2.73592 18.9154 2.73592C15.6999 2.73592 12.8989 3.52781 10.437 5.1116C7.97516 6.69538 6.06595 8.92023 4.68429 11.7736C3.30264 14.6269 2.61182 17.983 2.61182 21.8293V22.483C2.61182 26.8572 3.3152 30.5527 4.72197 33.582C6.12875 36.6113 8.08819 38.9241 10.6128 40.5079C13.1375 42.0917 16.0767 42.8836 19.4303 42.8836C22.0806 42.8836 24.4294 42.4562 26.4768 41.5889C28.5241 40.7342 30.2324 39.5024 31.5889 37.906C32.958 36.3096 33.9251 34.4116 34.4904 32.2371L34.5783 31.9102H36.6633L36.5754 32.2748C36.1609 34.2105 35.4575 35.9577 34.4652 37.5038C33.473 39.0498 32.2169 40.3697 30.7222 41.4632C29.2275 42.5568 27.5193 43.3864 25.6227 43.9395C23.726 44.4925 21.641 44.7816 19.3801 44.7816C15.6119 44.7816 12.3211 43.9018 9.49498 42.1546L9.50756 42.1294Z" fill="#F2D649"/>
</svg>
