<svg width="179" height="192" viewBox="0 0 179 192" fill="none" xmlns="http://www.w3.org/2000/svg">
<path d="M54.0151 184.997C42.4982 180.771 32.7226 174.587 24.7027 166.438C16.6828 158.289 10.5631 148.262 6.33644 136.364C2.10974 124.458 0 110.834 0 95.475V95.345C0 75.1244 3.69204 57.9092 11.0761 43.7064C18.453 29.5036 28.9944 18.6673 42.6933 11.1975C56.3849 3.73491 72.7065 0 91.6508 0C107.098 0 120.985 2.77409 133.311 8.32228C145.644 13.8705 155.622 21.4631 163.259 31.1002C170.896 40.7445 175.311 51.7036 176.51 63.992L176.64 65.2706H123.268L122.885 63.992C121.006 57.8514 117.336 53.0328 111.874 49.5291C106.412 46.0326 99.7574 44.2843 91.9037 44.2843C84.0499 44.2843 77.6485 46.206 72.1935 50.042C66.7313 53.8781 62.548 59.5563 59.6507 67.0622C56.7462 74.5682 55.3012 83.7863 55.3012 94.7093V94.8393C55.3012 103.205 56.2187 110.624 58.0539 117.104C59.8891 123.592 62.5335 129.053 65.9871 133.489C69.4407 137.924 73.5807 141.298 78.3999 143.603C83.2191 145.907 88.6162 147.056 94.5914 147.056C100.567 147.056 105.682 146.138 110.205 144.303C114.728 142.468 118.398 139.803 121.216 136.306C124.034 132.81 125.739 128.627 126.339 123.765L126.592 121.843H94.3385V84.4726H178.815V109.432C178.815 122.06 176.893 133.431 173.056 143.538C169.22 153.651 163.606 162.27 156.222 169.393C148.838 176.516 139.857 181.956 129.279 185.712C118.694 189.469 106.708 191.34 93.3126 191.34C78.6383 191.34 65.5392 189.231 54.0151 185.005V184.997Z" fill="white"/>
</svg>
