<svg width="309" height="61" viewBox="0 0 309 61" fill="none" xmlns="http://www.w3.org/2000/svg">
<path d="M0 35.7231V37.2189H307.6C307.714 36.7287 307.805 36.2259 307.896 35.7231H0Z" fill="white"/>
<path d="M0 47.6393V48.7077H302.492C302.742 48.3558 302.993 48.0038 303.232 47.6393H0Z" fill="white"/>
<path d="M0 59.5428V60.1839H281.207C282.936 60.1839 284.62 59.8822 286.258 59.5428H0Z" fill="white"/>
<path d="M292.652 2.79048C289.171 1.00558 285.303 0 281.219 0H0.0117188V2.79048H292.652Z" fill="white"/>
<path d="M304.346 14.2667C303.891 13.4496 303.402 12.6703 302.879 11.9036H0V14.2667H304.346Z" fill="white"/>
<path d="M308.112 25.7429C308.032 25.0892 307.93 24.4482 307.805 23.8197H0V25.7429H308.112Z" fill="white"/>
</svg>
