<svg width="39" height="45" viewBox="0 0 39 45" fill="none" xmlns="http://www.w3.org/2000/svg">
<path d="M9.59044 42.054C6.76433 40.2817 4.57883 37.7426 3.02133 34.4493C1.46383 31.1561 0.685059 27.272 0.685059 22.7972V22.7218C0.685059 18.247 1.4638 14.3629 3.03386 11.0822C4.60393 7.80152 6.78947 5.27501 9.60302 3.50268C12.4166 1.73034 15.6949 0.837891 19.4253 0.837891C23.1558 0.837891 26.409 1.73034 29.2351 3.50268C32.0612 5.27501 34.2718 7.80152 35.867 11.0571C37.4622 14.3252 38.2661 18.2092 38.2661 22.7092V22.7846C38.2661 27.2972 37.4748 31.1938 35.867 34.487C34.2718 37.7803 32.0612 40.3068 29.2351 42.0917C26.409 43.864 23.1432 44.7565 19.4253 44.7565C15.6823 44.7314 12.404 43.8263 9.57791 42.054H9.59044ZM28.2177 40.4199C30.7423 38.7859 32.7018 36.4605 34.096 33.4563C35.4902 30.4522 36.181 26.8949 36.181 22.7972V22.7218C36.181 18.5989 35.4776 15.0417 34.0709 12.0627C32.6641 9.08363 30.7047 6.78337 28.18 5.16188C25.6553 3.54038 22.7413 2.72335 19.4379 2.72335C16.1345 2.72335 13.1576 3.54038 10.6581 5.16188C8.15855 6.78337 6.2117 9.0962 4.83004 12.0878C3.44839 15.0794 2.745 18.6241 2.745 22.7218V22.7972C2.745 26.8949 3.43583 30.4396 4.83004 33.4563C6.22426 36.4605 8.17111 38.7733 10.6581 40.3948C13.1451 42.0163 16.0842 42.8459 19.4379 42.871C22.7664 42.871 25.693 42.054 28.2177 40.4074V40.4199Z" fill="#F2D649"/>
</svg>
