<svg width="60" height="62" viewBox="0 0 60 62" fill="none" xmlns="http://www.w3.org/2000/svg">
<path d="M14.2403 57.5567C9.79386 55.0805 6.36483 51.561 3.94065 46.9605C1.52904 42.3725 0.323242 36.9424 0.323242 30.6576V30.5696C0.323242 24.2847 1.5416 18.8546 3.96578 14.2792C6.38995 9.70383 9.83154 6.1843 14.278 3.70806C18.7244 1.23183 23.9872 0 30.0414 0C36.0955 0 41.4463 1.24439 45.9053 3.7332C50.3642 6.222 53.8058 9.74153 56.2174 14.3043C58.629 18.8671 59.8348 24.2847 59.8348 30.5696V30.6576C59.8348 36.9424 58.629 42.3725 56.2174 46.9479C53.8058 51.5233 50.3642 55.0554 45.9178 57.5442C41.4714 60.033 36.1709 61.2774 30.0288 61.2774C23.8867 61.2774 18.6741 60.0456 14.2277 57.5693L14.2403 57.5567ZM36.51 45.075C38.3187 43.7426 39.7004 41.8446 40.6927 39.3809C41.6724 36.9173 42.1622 34.0137 42.1622 30.6576V30.5696C42.1622 27.1883 41.6598 24.2721 40.6675 21.821C39.6753 19.3699 38.2685 17.4971 36.4472 16.1647C34.6259 14.8448 32.5032 14.1786 30.0414 14.1786C27.5795 14.1786 25.5321 14.8323 23.7109 16.1395C21.8896 17.4468 20.4954 19.3322 19.4905 21.7708C18.4983 24.2093 17.9958 27.1506 17.9958 30.557V30.645C17.9958 34.0262 18.4983 36.955 19.4905 39.4186C20.4828 41.8823 21.8896 43.7678 23.6857 45.0876C25.4819 46.4074 27.6046 47.0736 30.0288 47.0736C32.453 47.0736 34.6888 46.4074 36.4975 45.0625L36.51 45.075Z" fill="white"/>
</svg>
