<svg width="49" height="60" viewBox="0 0 49 60" fill="none" xmlns="http://www.w3.org/2000/svg">
<path d="M0 0H17.3586V59.128H0V0ZM8.71698 30.1548H22.2698C25.1335 30.1548 27.3819 29.4383 29.0022 28.0053C30.6225 26.5724 31.4389 24.4481 31.4389 21.6325V21.5571C31.4389 18.7163 30.6225 16.592 29.0022 15.1842C27.3819 13.7764 25.1335 13.0725 22.2698 13.0725H8.71698V0H26.4022C31.0119 0 35.0061 0.89245 38.3723 2.66478C41.7385 4.43711 44.3511 6.93849 46.1975 10.1689C48.0439 13.3993 48.9608 17.1828 48.9608 21.5571V21.6325C48.9608 26.0068 48.0439 29.7902 46.1975 32.983C44.3511 36.1757 41.7511 38.6393 38.3723 40.374C34.9935 42.1086 31.0119 42.9759 26.4022 42.9759H8.71698V30.1548Z" fill="white"/>
</svg>
