<svg width="41" height="40" viewBox="0 0 41 40" fill="none" xmlns="http://www.w3.org/2000/svg">
<path d="M20.2136 39.9153C14.8182 39.9153 9.74525 37.8418 5.92832 34.0771C2.10549 30.3065 0 25.2924 0 19.9577C0 14.6229 2.10549 9.60799 5.92832 5.83821C9.74525 2.07347 14.8191 0 20.2136 0C25.6082 0 30.682 2.07347 34.4989 5.83821C38.3217 9.60884 40.4272 14.6229 40.4272 19.9577C40.4272 25.2924 38.3217 30.3065 34.4989 34.0771C30.682 37.8418 25.609 39.9153 20.2136 39.9153ZM20.2136 3.07021C10.7605 3.07021 3.07023 10.646 3.07023 19.9577C3.07023 29.2693 10.7605 36.8451 20.2136 36.8451C29.6667 36.8451 37.3569 29.2693 37.3569 19.9577C37.3569 10.646 29.6667 3.07021 20.2136 3.07021Z" fill="white"/>
<path d="M13.8173 28.9132L30.1929 19.9577L13.8173 11.0029V28.9132Z" fill="white"/>
</svg>
