<svg width="18" height="45" viewBox="0 0 18 45" fill="none" xmlns="http://www.w3.org/2000/svg">
<path d="M0.0125728 1.49152H2.05994V10.0138H2.1353C3.01453 7.12276 4.4213 4.8602 6.36818 3.25127C8.31505 1.64235 10.7644 0.837891 13.7161 0.837891C14.6204 0.837891 15.4369 0.913315 16.1905 1.08929C16.9441 1.2527 17.5344 1.44124 17.9741 1.6675V3.75407C17.4842 3.50267 16.8562 3.28898 16.1151 3.0753C15.3741 2.86161 14.4571 2.77363 13.3895 2.77363C11.0658 2.77363 9.05612 3.41468 7.3479 4.68422C5.63967 5.95376 4.33337 7.70096 3.41646 9.9258C2.49954 12.1506 2.04737 14.7023 2.04737 17.5682V44.1154H0V1.50408L0.0125728 1.49152Z" fill="#F2D649"/>
</svg>
