<svg width="163" height="186" viewBox="0 0 163 186" fill="none" xmlns="http://www.w3.org/2000/svg">
<path d="M0.917908 0.330322H84.1153C99.9889 0.330322 113.363 2.76488 124.244 7.62677C135.125 12.4887 143.376 19.6117 149.011 28.996C154.64 38.3802 157.458 49.9028 157.458 63.5493V63.8021C157.458 75.3175 154.748 85.8576 149.329 95.4152C143.91 104.973 136.721 111.923 127.762 116.279L162.833 185.003H102.164L72.9814 124.341H55.1931V185.003H0.92514V0.330322H0.917908ZM77.8439 86.0743C85.1846 86.0743 91.0659 83.9866 95.5093 79.8037C99.9455 75.6209 102.164 70.1667 102.164 63.4193V63.1664C102.164 56.4262 99.9022 50.9431 95.3793 46.7241C90.8563 42.498 85.0112 40.3885 77.8439 40.3885H55.1859V86.0743H77.8439Z" fill="white"/>
</svg>
