<svg width="33" height="45" viewBox="0 0 33 45" fill="none" xmlns="http://www.w3.org/2000/svg">
<path d="M9.24151 43.135C6.90526 42.054 5.02118 40.5708 3.58929 38.6728C2.15739 36.7747 1.30327 34.6127 1.02694 32.1742L0.989258 31.8097H3.03662L3.0743 32.1365C3.4888 35.2538 4.98351 37.818 7.55841 39.8417C10.1333 41.8655 13.3363 42.871 17.1546 42.871C19.7421 42.871 22.0281 42.4562 23.9876 41.6392C25.947 40.8222 27.5045 39.6783 28.635 38.1951C29.7654 36.7244 30.3306 35.0401 30.3306 33.1546V33.1169C30.3306 30.6533 29.5267 28.7301 27.9316 27.3349C26.3364 25.9396 23.6735 24.8084 19.9682 23.9285L14.2406 22.6212C11.5401 21.9927 9.31689 21.2008 7.57098 20.2455C5.82507 19.2902 4.53133 18.1464 3.67722 16.8266C2.83567 15.5068 2.4086 13.9355 2.4086 12.1381V12.1004C2.4086 9.88809 3.02407 7.93979 4.25499 6.24287C5.48592 4.54596 7.15648 3.22614 9.29176 2.27084C11.427 1.31554 13.8512 0.837891 16.5768 0.837891C19.4406 0.837891 21.9527 1.35325 24.1131 2.3714C26.2735 3.38955 28.0069 4.84763 29.3132 6.73309C30.6195 8.61855 31.4359 10.856 31.7751 13.4579L31.8127 13.7847H29.7653L29.7277 13.4956C29.2881 10.24 27.8939 7.63812 25.5576 5.66467C23.2088 3.70379 20.2194 2.71078 16.5894 2.71078C14.2657 2.71078 12.2058 3.11302 10.3845 3.91748C8.56325 4.72194 7.13137 5.84064 6.08885 7.26102C5.03377 8.6814 4.51879 10.2903 4.51879 12.1004V12.1381C4.51879 13.6087 4.87047 14.8908 5.5613 15.9718C6.25212 17.0528 7.37001 17.9704 8.90239 18.7372C10.4348 19.5039 12.4193 20.1701 14.8812 20.7483L20.6088 22.1059C24.7914 23.0612 27.7934 24.3935 29.6398 26.103C31.4862 27.8125 32.4031 30.1253 32.4031 33.0415V33.0792C32.4031 35.3795 31.7499 37.4032 30.4562 39.163C29.1624 40.9227 27.3663 42.2928 25.0929 43.2858C22.8194 44.2789 20.1817 44.7565 17.2174 44.7565C14.2532 44.7565 11.5903 44.216 9.25408 43.135H9.24151Z" fill="#F2D649"/>
</svg>
