<svg width="52" height="62" viewBox="0 0 52 62" fill="none" xmlns="http://www.w3.org/2000/svg">
<path d="M12.2088 59.1154C8.47833 57.695 5.57686 55.621 3.49182 52.906C1.40678 50.1909 0.25121 46.8851 0.0376815 43.0136L0 42.2343H15.9644L16.0397 42.5988C16.291 43.6672 16.8562 44.5974 17.7605 45.3893C18.6649 46.1812 19.7953 46.7971 21.1644 47.2496C22.5335 47.7021 24.0282 47.9283 25.6736 47.9283C27.4196 47.9283 28.9143 47.7147 30.1577 47.2747C31.4012 46.8348 32.3558 46.2314 33.0467 45.4773C33.7249 44.7105 34.0641 43.8432 34.0641 42.8502V42.8125C34.0641 41.4172 33.3983 40.374 32.0544 39.6575C30.723 38.9536 28.4118 38.2874 25.1335 37.6966L19.1924 36.6282C13.3267 35.5849 8.83003 33.6114 5.70246 30.6827C2.5749 27.7665 1.0174 24.0082 1.0174 19.4202V19.3825C1.0174 15.423 2.05992 11.9915 4.14496 9.10048C6.23 6.20944 9.10636 3.97203 12.7615 2.37568C16.4166 0.791892 20.5866 0 25.2466 0C30.5094 0 34.9558 0.741616 38.5481 2.21227C42.153 3.68293 44.9038 5.78207 46.813 8.49713C48.7221 11.2122 49.7647 14.4175 49.928 18.1004L49.9656 19.0054H34.0013L33.9636 18.5906C33.8505 17.4971 33.4235 16.5669 32.6698 15.7876C31.9162 15.0082 30.9239 14.4049 29.6804 13.965C28.437 13.525 27.0302 13.3113 25.4476 13.3113C23.8649 13.3113 22.5335 13.525 21.4533 13.9524C20.3731 14.3798 19.5692 14.9454 19.0166 15.6744C18.4639 16.4035 18.2002 17.208 18.2002 18.113V18.1507C18.2002 19.4831 18.8659 20.5264 20.2098 21.2428C21.5412 21.9719 23.6891 22.6004 26.6408 23.1534L32.5819 24.2218C36.8148 24.9886 40.3066 26.0947 43.0574 27.5403C45.8081 28.9858 47.868 30.8335 49.2246 33.0961C50.5811 35.3461 51.2468 38.0737 51.2468 41.2664V41.3041C51.2468 45.3767 50.2294 48.9088 48.1946 51.9004C46.1598 54.892 43.2207 57.2048 39.3771 58.8263C35.5336 60.4478 30.8862 61.2648 25.4601 61.2648C20.3606 61.2648 15.9393 60.5484 12.2214 59.128L12.2088 59.1154Z" fill="white"/>
</svg>
