<svg width="44" height="29" viewBox="0 0 44 29" fill="none" xmlns="http://www.w3.org/2000/svg">
<path d="M38.2657 16.3929C28.7874 10.569 14.9247 8.9299 3.77441 12.3133C2.51079 12.698 1.79691 14.0332 2.17827 15.2993C2.56299 16.5629 3.89984 17.2768 5.16598 16.8946C14.928 13.9313 27.5086 15.4003 35.7621 20.4733C36.8876 21.1661 38.3617 20.8109 39.0545 19.6845C39.7474 18.5606 39.3921 17.0866 38.2665 16.3937L38.2657 16.3929Z" fill="white"/>
<path d="M34.6609 25.4115C26.5674 20.4657 16.5352 19.3149 4.83854 21.9869C3.80643 22.2218 3.16326 23.248 3.39898 24.2784C3.63385 25.3088 4.66006 25.9537 5.69048 25.7196C16.3786 23.2774 25.4537 24.275 32.6632 28.6787C33.5649 29.2327 34.746 28.9464 35.2957 28.0448C35.8496 27.1432 35.5634 25.9663 34.6618 25.4124L34.6609 25.4115Z" fill="white"/>
<path d="M42.3075 6.03818C30.9139 -0.725212 12.8841 -1.36165 2.03859 1.93081C0.519897 2.39215 -0.335419 3.99502 0.12423 5.51371C0.583878 7.03072 2.18844 7.88772 3.70544 7.42723C13.1535 4.5599 29.4803 5.10037 39.3762 10.9781H39.3778C40.7383 11.7888 42.5053 11.3384 43.3118 9.97381C44.1217 8.61086 43.6746 6.84888 42.3075 6.03818Z" fill="white"/>
</svg>
